<?xml version="1.0" encoding="utf-8"?>
<!-- Generator: Adobe Illustrator 23.1.1, SVG Export Plug-In . SVG Version: 6.00 Build 0)  -->
<svg version="1.1" id="Layer_1" xmlns="http://www.w3.org/2000/svg" xmlns:xlink="http://www.w3.org/1999/xlink" x="0px" y="0px"
	 viewBox="0 0 512 512" style="enable-background:new 0 0 512 512;" xml:space="preserve">
<style type="text/css">
	.st0{stroke:#000000;stroke-width:10;stroke-miterlimit:10;}
</style>
<g>
	<g>
		<path class="st0" d="M18.7,204.2c-2.9,2.9-2.9,7.6,0,10.5L95,291l-76.3,76.3c-2.9,2.9-2.9,7.6,0,10.5s7.6,2.9,10.5,0l81.5-81.5
			c1.4-1.4,2.2-3.3,2.2-5.2s-0.7-3.8-2.2-5.2l-81.5-81.5C26.2,201.3,21.6,201.3,18.7,204.2z"/>
	</g>
</g>
<g>
	<g>
		<path class="st0" d="M494.4,377.7c2.9-2.9,2.9-7.6,0-10.5l-76.3-76.3l76.3-76.3c2.9-2.9,2.9-7.6,0-10.5s-7.6-2.9-10.5,0
			l-81.5,81.5c-1.4,1.4-2.2,3.3-2.2,5.2s0.7,3.8,2.2,5.2l81.5,81.5C486.8,380.6,491.5,380.6,494.4,377.7z"/>
	</g>
</g>
<polygon points="346,80 269.7,80 243.1,80 166.8,80 166.8,137.6 243.1,205.5 243.1,416 269.7,416 269.7,205.5 346,137.6 "/>
</svg>
