<?xml version="1.0" encoding="utf-8"?>
<!-- Generator: Adobe Illustrator 23.1.1, SVG Export Plug-In . SVG Version: 6.00 Build 0)  -->
<svg version="1.1" id="Layer_1" xmlns="http://www.w3.org/2000/svg" xmlns:xlink="http://www.w3.org/1999/xlink" x="0px" y="0px"
	 viewBox="0 0 512 512" style="enable-background:new 0 0 512 512;" xml:space="preserve">
<g>
	<path d="M451.7,9.5c-0.8-5.5-5.5-9.5-11.1-9.5L256,0.1l0,0L71.4,0.3c-5.6,0-10.3,4.1-11.1,9.5L14,317c-1.5,9.7-1.3,19.7,0.4,29.4
		l26.5,148.4c1.8,10,10.5,17.3,20.6,17.3l194.5-0.1l0,0l194.5-0.1c10.2,0,18.8-7.3,20.6-17.3l26.5-148.4c1.7-9.7,1.9-19.6,0.4-29.4
		L451.7,9.5z M334.1,331.4c0,1,0.1,2,0.1,2.9c0,43.4-35.2,61.1-78.6,61.1l0,0c-43-0.5-77.8-17.7-77.8-60.8c0-1,0-2,0.1-2.9H40.5
		L84.8,40.2c0.7-4.8,4.8-8.3,9.6-8.3l162-0.1l0,0l161.1-0.1c4.8,0,8.9,3.5,9.6,8.3l44.3,291.5H334.1z"/>
	<path d="M86.6,256.7c-4.9,0-8.8,3.9-8.8,8.8v21.6l178.3-0.1l0,0l178-0.1v-21.6c0-4.9-3.9-8.8-8.8-8.8H256.2"/>
	<path d="M256.2,196.7H101.7c-4.9,0-8.8,3.9-8.8,8.8V227l163.2-0.1l0,0l162.9-0.1v-21.6c0-4.9-3.9-8.8-8.8-8.8"/>
	<path d="M256.2,136.5H116.5c-4.9,0-8.8,3.9-8.8,8.8v21.6l148.5-0.1l0,0l0,0l148.1-0.2v-21.6c0-4.9-3.9-8.8-8.8-8.8"/>
	<path d="M131.6,76.5c-4.9,0-8.8,3.9-8.8,8.8v21.6l133.4-0.1l0,0l0,0l133.1-0.2V84.9c0-4.9-3.9-8.8-8.8-8.8H256.2"/>
</g>
</svg>
