<?xml version="1.0" encoding="utf-8"?>
<!-- Generator: Adobe Illustrator 23.1.1, SVG Export Plug-In . SVG Version: 6.00 Build 0)  -->
<svg version="1.1" id="Capa_1" xmlns="http://www.w3.org/2000/svg" xmlns:xlink="http://www.w3.org/1999/xlink" x="0px" y="0px"
	 viewBox="0 0 314 314" style="enable-background:new 0 0 314 314;" xml:space="preserve">
<style type="text/css">
	.st0{stroke:#000000;stroke-miterlimit:10;}
</style>
<path class="st0" d="M287,52.4c-0.4-1.9-1.6-3.6-3.3-4.5l-10.7-5.9l5-9c1.8-3.2,0.6-7.2-2.6-9c-3.2-1.8-7.2-0.6-9,2.6l-5,9
	l-10.7-5.9c-1.7-1-3.8-1.1-5.6-0.4c-1.8,0.7-3.3,2.2-3.9,4l-13.1,38c-1,3,0.2,6.4,3,8l4.5,2.5L213.9,121l-19-96.5
	c-1.8-9.1-10.4-16.2-19.7-16.2h-53.1c-9.3,0-17.9,7.1-19.7,16.2L63.7,220.9c0,0,0,0,0,0l-13,66.1c-0.9,4.8,0.2,9.6,3.1,13.2
	c2.9,3.6,7.4,5.6,12.3,5.6h165c4.9,0,9.4-2,12.3-5.6c2.9-3.6,4.1-8.4,3.1-13.2l-13-66.1c0,0,0,0,0,0l-15.7-79.8l29.5-53l4.5,2.5
	c1,0.6,2.1,0.8,3.2,0.8c1.9,0,3.8-0.8,5.1-2.4l25.4-31.1C286.9,56.4,287.4,54.4,287,52.4z M115.4,27c0.6-2.9,3.8-5.5,6.7-5.5h53.1
	c2.9,0,6.1,2.6,6.7,5.5l22,111.9l-28.5,51.2c-5.8-2.5-12.4-4.4-20.1-5.1v-14.1h10.4c3.7,0,6.6-3,6.6-6.6c0-3.7-3-6.6-6.6-6.6h-10.4
	v-39h10.4c3.7,0,6.6-3,6.6-6.6c0-3.7-3-6.6-6.6-6.6h-10.4v-39h10.4c3.7,0,6.6-3,6.6-6.6c0-3.7-3-6.6-6.6-6.6h-10.4V41.4
	c0-3.7-3-6.6-6.6-6.6s-6.6,3-6.6,6.6V53h-10.4c-3.7,0-6.6,3-6.6,6.6s3,6.6,6.6,6.6H142v39h-10.4c-3.7,0-6.6,3-6.6,6.6
	c0,3.7,3,6.6,6.6,6.6H142v39h-10.4c-3.7,0-6.6,3-6.6,6.6c0,3.7,3,6.6,6.6,6.6H142V185c-18.4,1.7-30.5,10.1-41.3,17.7
	c-7.5,5.2-14.2,9.9-22.3,11.9L115.4,27z M233.2,291.7c-0.4,0.5-1.1,0.8-2.1,0.8h-165c-0.9,0-1.7-0.3-2.1-0.8
	c-0.4-0.5-0.5-1.3-0.4-2.2l12-61c13.4-1.5,23.2-8.3,32.6-15c11.4-8,22.2-15.6,40.3-15.6s28.9,7.6,40.3,15.6
	c9.5,6.6,19.2,13.5,32.6,15l12,61C233.8,290.4,233.6,291.2,233.2,291.7z M218.8,214.6c-8.1-2-14.8-6.7-22.3-11.9
	c-3-2.1-6.1-4.3-9.4-6.4l20.8-37.3L218.8,214.6z M253.5,76.3l-10.9-6.1l8.7-25.3l19.1,10.6L253.5,76.3z"/>
</svg>
