<?xml version="1.0" encoding="utf-8"?>
<!-- Generator: Adobe Illustrator 23.1.1, SVG Export Plug-In . SVG Version: 6.00 Build 0)  -->
<svg version="1.1" id="Capa_1" xmlns="http://www.w3.org/2000/svg" xmlns:xlink="http://www.w3.org/1999/xlink" x="0px" y="0px"
	 viewBox="0 0 512 512" style="enable-background:new 0 0 512 512;" xml:space="preserve">
<ellipse transform="matrix(0.5404 -0.8414 0.8414 0.5404 -28.3002 281.2217)" cx="243.3" cy="166.5" rx="33.4" ry="33.4"/>
<path d="M251.5,224.6c-43.6,6.2-74,46.7-67.8,90.3c6.2,43.6,46.7,74,90.3,67.8c43.6-6.2,74-46.7,67.8-90.3
	C335.6,248.8,295.1,218.4,251.5,224.6z M267.5,336.9c-18.4,2.6-35.5-10.2-38.1-28.6c-2.6-18.4,10.2-35.5,28.6-38.1
	c18.4-2.6,35.5,10.2,38.1,28.6C298.7,317.2,285.9,334.3,267.5,336.9z"/>
<path d="M439.1,0h-362C66.4,0,57.7,8.7,57.7,19.4v473.3c0,10.7,8.7,19.4,19.4,19.4h362c10.7,0,19.4-8.7,19.4-19.4V19.4
	C458.4,8.7,449.7,0,439.1,0z M364.1,415.1L196.6,439c-16.6,2.4-32-9.2-34.3-25.8l-40.1-281.9c-2.4-16.6,9.2-32,25.8-34.3L315.4,73
	c16.6-2.4,32,9.2,34.3,25.8l40.1,281.9C392.2,397.4,380.7,412.8,364.1,415.1z"/>
</svg>
