<?xml version="1.0" encoding="utf-8"?>
<!-- Generator: Adobe Illustrator 23.1.1, SVG Export Plug-In . SVG Version: 6.00 Build 0)  -->
<svg version="1.1" id="Layer_1" xmlns="http://www.w3.org/2000/svg" xmlns:xlink="http://www.w3.org/1999/xlink" x="0px" y="0px"
	 viewBox="0 0 512 512" style="enable-background:new 0 0 512 512;" xml:space="preserve">
<g>
	<g>
		<path d="M457.6,134.7c-30,0-54.4,24.4-54.4,54.4c0,10.9,3.3,21.1,8.8,29.6l-58.7,58.7c-8.5-5.6-18.7-8.8-29.6-8.8
			c-11.3,0-21.9,3.5-30.6,9.4l-59.3-59.3c5.6-8.5,8.8-18.7,8.8-29.6c0-30-24.4-54.4-54.4-54.4s-54.4,24.4-54.4,54.4
			c0,10.9,3.3,21.1,8.8,29.6L84,277.4c-8.5-5.6-18.7-8.8-29.6-8.8C24.4,268.6,0,293,0,323s24.4,54.4,54.4,54.4s54.4-24.4,54.4-54.4
			c0-10.9-3.3-21.1-8.8-29.6l58.7-58.7c8.5,5.6,18.7,8.8,29.6,8.8c10.9,0,21.1-3.3,29.6-8.8l59.7,59.7c-5.2,8.3-8.2,18.2-8.2,28.7
			c0,30,24.4,54.4,54.4,54.4s54.4-24.4,54.4-54.4c0-10.9-3.3-21.1-8.8-29.6l58.7-58.7c8.5,5.6,18.7,8.8,29.6,8.8
			c30,0,54.4-24.4,54.4-54.4C512,159.1,487.6,134.7,457.6,134.7z M54.4,354.8c-17.6,0-31.9-14.3-31.9-31.9
			c0-17.6,14.3-31.9,31.9-31.9c17.6,0,31.9,14.3,31.9,31.9C86.3,340.5,71.9,354.8,54.4,354.8z M188.3,220.9
			c-17.6,0-31.9-14.3-31.9-31.9c0-17.6,14.3-31.9,31.9-31.9s31.9,14.3,31.9,31.9S205.9,220.9,188.3,220.9z M323.7,354.8
			c-17.6,0-31.9-14.3-31.9-31.9s14.3-31.9,31.9-31.9c17.6,0,31.9,14.3,31.9,31.9C355.6,340.5,341.3,354.8,323.7,354.8z M457.6,220.9
			c-17.6,0-31.9-14.3-31.9-31.9c0-17.6,14.3-31.9,31.9-31.9c17.6,0,31.9,14.3,31.9,31.9S475.2,220.9,457.6,220.9z"/>
	</g>
</g>
</svg>
