<?xml version="1.0" encoding="utf-8"?>
<!-- Generator: Adobe Illustrator 23.1.1, SVG Export Plug-In . SVG Version: 6.00 Build 0)  -->
<svg version="1.1" id="Layer_1" xmlns="http://www.w3.org/2000/svg" xmlns:xlink="http://www.w3.org/1999/xlink" x="0px" y="0px"
	 viewBox="0 0 512 512" style="enable-background:new 0 0 512 512;" xml:space="preserve">
<g>
	<path d="M462.1,9.5c-0.9-5.5-5.8-9.5-11.7-9.5L256,0.1l0,0L61.5,0.3c-5.8,0-10.8,4.1-11.7,9.5L1.1,317c-1.5,9.7-1.4,19.7,0.4,29.4
		l27.9,148.4c1.9,10,11,17.3,21.7,17.3l204.9-0.1l0,0l204.9-0.1c10.7,0,19.8-7.3,21.7-17.3l27.9-148.4c1.8-9.7,2-19.6,0.4-29.4
		L462.1,9.5z M338.3,331.4c0,1,0.1,2,0.1,2.9c0,43.4-37.1,61.1-82.8,61.1l0,0c-45.3-0.5-81.9-17.7-81.9-60.8c0-1,0-2,0.1-2.9H29
		L75.7,40.2c0.8-4.8,5.1-8.3,10.1-8.3l170.6-0.1l0,0l169.7-0.1c5.1,0,9.4,3.5,10.1,8.3L483,331.4H338.3z"/>
	<path d="M77.6,256.7c-5.1,0-9.2,3.9-9.2,8.8v21.6l187.9-0.1l0,0l187.5-0.1v-21.6c0-4.9-4.1-8.8-9.2-8.8H256.2"/>
	<path d="M256.2,196.7H93.5c-5.1,0-9.2,3.9-9.2,8.8V227l172-0.1l0,0l171.6-0.1v-21.6c0-4.9-4.1-8.8-9.2-8.8"/>
	<path d="M256.2,136.5H109c-5.1,0-9.3,3.9-9.3,8.8v21.6l156.4-0.1l0,0l0,0l156-0.2v-21.6c0-4.9-4.2-8.8-9.3-8.8"/>
	<path d="M124.9,76.5c-5.1,0-9.3,3.9-9.3,8.8v21.6l140.5-0.1l0,0l0,0l140.2-0.2V84.9c0-4.9-4.1-8.8-9.3-8.8H256.2"/>
</g>
</svg>
