<?xml version="1.0" encoding="iso-8859-1"?>
<!-- Generator: Adobe Illustrator 19.0.0, SVG Export Plug-In . SVG Version: 6.00 Build 0)  -->
<svg version="1.1" id="Layer_1" xmlns="http://www.w3.org/2000/svg" xmlns:xlink="http://www.w3.org/1999/xlink" x="0px" y="0px"
	 viewBox="0 0 512 512" style="enable-background:new 0 0 512 512;" xml:space="preserve">
<g>
	<g>
		<path d="M506.229,214.521l-64.301-33.188l64.301-33.188c3.521-1.823,5.75-5.438,5.771-9.406c0.021-3.969-2.146-7.615-5.646-9.49
			l-160-85.333c-3.104-1.646-6.792-1.667-9.917-0.063L256,85.37l-80.438-41.516c-3.125-1.604-6.854-1.583-9.917,0.063l-160,85.333
			c-3.5,1.875-5.667,5.521-5.646,9.49s2.25,7.583,5.771,9.406l64.301,33.188L5.771,214.521c-3.521,1.823-5.75,5.438-5.771,9.406
			s2.146,7.615,5.646,9.49l79.688,42.5v97.417c0,3.938,2.167,7.563,5.646,9.417l160,85.333c1.563,0.833,3.292,1.25,5.021,1.25
			s3.458-0.417,5.021-1.25l160-85.333c3.479-1.854,5.646-5.479,5.646-9.417v-97.417l79.688-42.5c3.5-1.875,5.667-5.521,5.646-9.49
			C511.979,219.959,509.75,216.344,506.229,214.521z M341.25,65.375l137.125,73.135l-59.707,30.818L279.257,97.374L341.25,65.375z
			 M33.625,138.511L170.75,65.375l61.993,31.999L93.332,169.328L33.625,138.511z M33.625,224.157l59.707-30.818l139.411,71.954
			l-61.993,31.999L33.625,224.157z M245.333,440.884l-138.667-73.947v-79.643l58.979,31.456c1.563,0.833,3.292,1.25,5.021,1.25
			c1.688,0,3.354-0.396,4.896-1.188l69.771-36.01V440.884z M256,253.289l-139.409-71.956L256,109.378l139.409,71.956L256,253.289z
			 M405.334,366.938l-138.667,73.947V282.802l69.771,36.01c1.542,0.792,3.208,1.188,4.896,1.188c1.729,0,3.458-0.417,5.021-1.25
			l58.979-31.456V366.938z M341.25,297.292l-61.993-31.999l139.411-71.954l59.707,30.818L341.25,297.292z"/>
	</g>
</g>
<g>
</g>
<g>
</g>
<g>
</g>
<g>
</g>
<g>
</g>
<g>
</g>
<g>
</g>
<g>
</g>
<g>
</g>
<g>
</g>
<g>
</g>
<g>
</g>
<g>
</g>
<g>
</g>
<g>
</g>
</svg>
