<?xml version="1.0" encoding="utf-8"?>
<!-- Generator: Adobe Illustrator 23.1.1, SVG Export Plug-In . SVG Version: 6.00 Build 0)  -->
<svg version="1.1" id="Capa_1" xmlns="http://www.w3.org/2000/svg" xmlns:xlink="http://www.w3.org/1999/xlink" x="0px" y="0px"
	 viewBox="0 0 484 484" style="enable-background:new 0 0 484 484;" xml:space="preserve">
<path d="M450.5,416.6c24.4-24.4,24.4-63.9,0-88.3l-22.2-22.1L193.1,70.9l-0.5-0.5c-0.1-0.1-0.2-0.1-0.2-0.2
	c-0.4-0.2-0.7-0.6-1.1-0.9c-0.1,0-0.1-0.1-0.2-0.1c-0.4-0.2-0.6-0.4-1-0.6c-0.1-0.1-0.2-0.1-0.4-0.2c-0.4-0.1-0.6-0.2-1-0.4
	c-0.1,0-0.1-0.1-0.2-0.1l-157-52.2c-4.5-1.5-9.4-0.4-12.7,3C16.3,21,15,24.2,15,27.5c0,1.4,0.2,2.7,0.6,4L68,188.3
	c0,0.1,0,0.1,0.1,0.2c0.1,0.4,0.3,0.8,0.5,1.1c0,0.1,0.1,0.2,0.1,0.3c0.2,0.4,0.5,0.9,0.8,1.2c0.2,0.4,0.6,0.8,0.9,1.1
	c0.1,0.1,0.1,0.2,0.2,0.2c0.1,0.1,0.2,0.4,0.5,0.5l257.4,257.4c24.4,24.4,63.9,24.4,88.3,0L450.5,416.6z M97.3,184.3l86.9-86.9
	l217.5,217.5l-86.9,86.9L97.3,184.3z M161.1,85.2l-75.9,75.9l-38-114L161.1,85.2z M345.9,432.8l-13.4-13.2l86.9-86.9l13.4,13.4
	c14.6,14.6,14.6,38.3,0,52.9l-34,34C384.2,447.5,360.6,447.4,345.9,432.8z"/>
</svg>
