<?xml version="1.0" encoding="utf-8"?>
<!-- Generator: Adobe Illustrator 23.1.1, SVG Export Plug-In . SVG Version: 6.00 Build 0)  -->
<svg version="1.1" id="Capa_1" xmlns="http://www.w3.org/2000/svg" xmlns:xlink="http://www.w3.org/1999/xlink" x="0px" y="0px"
	 viewBox="0 0 512 512" style="enable-background:new 0 0 512 512;" xml:space="preserve">
<g>
	<path d="M350.2,165.1c-7.9-7-20.1-6.3-27.1,1.6c-7,7.9-6.3,20.1,1.6,27.1c22.2,19.7,34.9,47.9,34.9,77.5
		c0,57.1-46.5,103.6-103.6,103.6s-103.6-46.5-103.6-103.6c0-29.9,12.9-58.3,35.4-78c8-7,8.8-19.1,1.8-27.1c-7-8-19.1-8.8-27.1-1.8
		c-30.9,27-48.6,66-48.6,106.9c0,78.3,63.7,142,142,142s142-63.7,142-142C398,230.8,380.6,192.1,350.2,165.1z"/>
	<path d="M256,239.4c10.6,0,19.2-8.6,19.2-19.2V117.8c0-10.6-8.6-19.2-19.2-19.2c-10.6,0-19.2,8.6-19.2,19.2v102.3
		C236.8,230.8,245.4,239.4,256,239.4z"/>
</g>
</svg>
