<?xml version="1.0" encoding="utf-8"?>
<!-- Generator: Adobe Illustrator 23.1.1, SVG Export Plug-In . SVG Version: 6.00 Build 0)  -->
<svg version="1.1" id="Capa_1" xmlns="http://www.w3.org/2000/svg" xmlns:xlink="http://www.w3.org/1999/xlink" x="0px" y="0px"
	 viewBox="0 0 512 512" style="enable-background:new 0 0 512 512;" xml:space="preserve">
<g>
	<g>
		<g>
			<path d="M373.6,378.8c15.7,3.4,30,5.2,42.4,5.2c43.8,0,96-22.2,96-128s-52.2-128-96-128c-12.4,0-26.7,1.8-42.4,5.2
				c-75.1,16.4-153.3,16.5-232.5,0.2c-17-3.5-32.6-5.4-45.1-5.4c-43.8,0-96,22.2-96,128s52.2,128,96,128c12.5,0,28.1-1.9,45.1-5.4
				C220.3,362.3,298.5,362.4,373.6,378.8z M136.8,357.8c-15.6,3.2-29.7,4.9-40.8,4.9c-18.5,0-74.7,0-74.7-106.7S77.5,149.3,96,149.3
				c11.1,0,25.2,1.7,40.8,4.9c82.1,16.9,163.3,16.9,241.3-0.2c14-3.1,27.1-4.7,37.9-4.7c18.5,0,74.7,0,74.7,106.7
				S434.5,362.7,416,362.7c-10.7,0-23.8-1.6-37.9-4.7C300.1,340.9,218.9,340.8,136.8,357.8z"/>
			<path d="M140.8,324.2c-1.2-5.8-6.8-9.5-12.6-8.3c-12.6,2.6-24,4-32.2,4c-12.7,0-32,0-32-64s19.3-64,32-64c8.2,0,19.6,1.4,32.2,4
				c5.8,1.2,11.4-2.5,12.6-8.3c1.1-5.7-2.5-11.4-8.3-12.6c-13.9-2.9-26.9-4.5-36.5-4.5c-24.8,0-53.3,9.7-53.3,85.3
				s28.5,85.3,53.3,85.3c9.6,0,22.6-1.6,36.5-4.5C138.3,335.7,141.9,330,140.8,324.2z"/>
			<path d="M469.3,256c0-75.6-28.5-85.3-53.3-85.3c-6.4,0-17.4,0.7-33.3,4.2c-5.8,1.2-9.4,7-8.1,12.7c1.3,5.8,6.9,9.4,12.7,8.1
				c14-3.1,23.4-3.7,28.8-3.7c12.7,0,32,0,32,64s-19.3,64-32,64c-5.4,0-14.7-0.6-28.8-3.7c-5.8-1.3-11.4,2.4-12.7,8.1
				c-0.2,0.8-0.2,1.5-0.2,2.3c0,4.9,3.4,9.3,8.4,10.4c15.9,3.5,26.9,4.2,33.3,4.2C440.8,341.3,469.3,331.6,469.3,256z"/>
		</g>
	</g>
</g>
</svg>
