<svg height="512pt" viewBox="0 0 512.03981 512" width="512pt" xmlns="http://www.w3.org/2000/svg"><path d="m282.523438 1.34375c-8.800782-.886719-17.640626-1.328125-26.484376-1.3242188h-.265624c-14.636719.2421878-26.339844 12.2421878-26.214844 26.8828128v105.53125c-.035156 3.554687.6875 7.074218 2.117187 10.328125 4.582031 10.90625 15.863281 17.429687 27.597657 15.964843 13.554687-2.03125 23.5-13.792968 23.25-27.492187v-76.484375c98.890624 12.980469 173.726562 95.839844 176.59375 195.539062 2.867187 99.699219-67.078126 186.726563-165.058594 205.367188-97.980469 18.644531-195-36.613281-228.945313-130.398438-33.945312-93.785156 5.226563-198.339843 92.441407-246.730468 11.59375-6.566406 16.445312-20.769532 11.289062-33.054688l-.03125-.074218c-2.890625-6.988282-8.625-12.40625-15.765625-14.902344-7.136719-2.492188-15-1.820313-21.613281 1.84375-110.347656 61.484375-159.351563 194.269531-115.402344 312.695312 43.945312 118.429688 167.710938 187.097656 291.453125 161.710938 123.742187-25.386719 210.472656-137.238282 204.238281-263.40625-6.230468-126.164063-103.558594-228.925782-229.199218-241.996094zm0 0"/><path d="m159.300781 170.949219c10.652344 28.050781 45.503907 94.28125 71.574219 122.480469 16.027344 18.09375 43.394531 20.515624 62.351562 5.523437 9.484376-7.957031 15.191407-19.527344 15.738282-31.894531.542968-12.363282-4.132813-24.390625-12.878906-33.148438-27.265626-27.261718-96.464844-63.382812-125.480469-74.398437-3.25-1.222657-6.917969-.417969-9.363281 2.050781-2.441407 2.472656-3.203126 6.148438-1.941407 9.386719zm0 0"/></svg>