<?xml version="1.0" encoding="utf-8"?>
<!-- Generator: Adobe Illustrator 23.1.1, SVG Export Plug-In . SVG Version: 6.00 Build 0)  -->
<svg version="1.1" id="Capa_1" xmlns="http://www.w3.org/2000/svg" xmlns:xlink="http://www.w3.org/1999/xlink" x="0px" y="0px"
	 viewBox="0 0 512 512" style="enable-background:new 0 0 512 512;" xml:space="preserve">
<style type="text/css">
	.st0{stroke:#000000;stroke-width:7;stroke-miterlimit:10;}
</style>
<path class="st0" d="M322.9,89.6c0-13.2-10.7-23.9-23.9-23.9s-23.9,10.7-23.9,23.9c0,13.2,10.7,23.9,23.9,23.9
	S322.9,102.7,322.9,89.6z M289.7,89.6c0-5.2,4.2-9.4,9.4-9.4s9.4,4.2,9.4,9.4s-4.2,9.4-9.4,9.4S289.7,94.7,289.7,89.6z"/>
<path class="st0" d="M289.7,183.5c0-13.2-10.7-23.9-23.9-23.9c-13.2,0-23.9,10.7-23.9,23.9c0,13.2,10.7,23.9,23.9,23.9
	C279,207.4,289.7,196.7,289.7,183.5z M256.4,183.5c0-5.2,4.2-9.4,9.4-9.4s9.4,4.2,9.4,9.4s-4.2,9.4-9.4,9.4S256.4,188.7,256.4,183.5
	z"/>
<path class="st0" d="M257.4,277.9c0-13.2-10.7-23.9-23.9-23.9c-13.2,0-23.9,10.7-23.9,23.9s10.7,23.9,23.9,23.9
	C246.7,301.8,257.4,291,257.4,277.9z M224.2,277.9c0-5.2,4.2-9.4,9.4-9.4s9.4,4.2,9.4,9.4s-4.2,9.4-9.4,9.4S224.2,283,224.2,277.9z"
	/>
<path class="st0" d="M180.3,372.8c0,13.2,10.7,23.9,23.9,23.9c13.2,0,23.9-10.7,23.9-23.9c0-13.2-10.7-23.9-23.9-23.9
	C191,348.9,180.3,359.6,180.3,372.8z M213.5,372.8c0,5.2-4.2,9.4-9.4,9.4s-9.4-4.2-9.4-9.4c0-5.2,4.2-9.4,9.4-9.4
	S213.5,367.6,213.5,372.8z"/>
<path class="st0" d="M199.5,114.7c-25.5,0-45.9,23-42.8,48.3c2.6,21.6,21,37.9,42.7,37.9c3.2,0,6.3-0.4,9.4-0.8l-8,24.1
	c-8.2-9.3-19.9-14.7-32.4-14.7c-25.5,0-45.9,23-42.8,48.3c2.6,21.6,21,37.9,42.7,37.9c1.7,0,3.5-0.1,5.2-0.3l3.6-0.4l-7.4,22.1
	c-8.2-9-19.6-14-31.8-14c-25.5,0-45.9,23-42.8,48.3c2.6,21.6,21,37.9,42.7,37.9c1.7,0,3.5-0.1,5.2-0.3l2.8-0.3l-3.9,11.7
	c-3.5,10.4-1.9,22.1,4.2,31.2l45.9,68.5c1.3,2,3.6,3.2,6,3.2h139.9c3.6,0,6.6-2.6,7.2-6.1c6.8-41.1,38.7-80.6,57.2-100.5
	c13-14,17.7-34,12.2-52.3l-11.2-37.5c-1.2-3.8-5.2-6-9-4.9c-3.8,1.2-6,5.2-4.9,9l11.2,37.5c4,13.4,0.6,28-8.9,38.3
	c-22.8,24.5-51,61.6-59.7,101.9h-130l-43.7-65.3c-3.7-5.5-4.6-12.3-2.5-18.5c0,0,113.3-340.1,113.3-340.1
	c5.5-20,32.3-42.4,55.9-44.1c3.9-0.9,17.5-7.6,16.6-11.5c-14.8-3.1-27.7-0.3-31.6,0.6c-16.8,4-31.7,13.8-42.2,27.3
	c-8.2-9.7-20.1-15.2-32.8-15.2c-13.2,0-25.8,6.2-33.9,16.5c-7.1,9.1-10.2,20.3-8.8,31.8c2.8,22.9,24.4,40.1,47.4,37.6l-7.4,22.2
	C224,120.2,212.1,114.7,199.5,114.7z M202.9,186.1c-15.5,1.9-29.9-9.5-31.8-24.9c-2-16.8,11.5-32,28.4-32c8.7,0,16.8,3.9,22.3,10.7
	l5,6.3l-12.9,38.6L202.9,186.1z M141.6,374.4c-15.5,1.3-29.9-9.1-31.8-25c-1.9-15.6,9.3-29.9,24.9-31.8c10.5-1.3,18.6,3.3,25.7,10.5
	l4.1,5.1l-13.3,40C148,373.6,144.8,374.1,141.6,374.4z M182.3,279.6l-10.4,1.3c-15.5,1.9-29.9-9.5-31.8-24.9
	c-1.9-15.6,9.3-29.9,24.9-31.8c10.5-1.3,18.6,3.3,25.7,10.5l4.6,5.8L182.3,279.6z M244.7,92.4c-3.2,0.4-6.5,1-9.7,1
	c-14.4,0-26.6-10.8-28.3-25.1c-2-16.8,11.5-32,28.4-32c8.7,0,16.8,3.9,22.3,10.7l2.4,3c-0.1,0.2-0.2,0.3-0.2,0.5
	c-1.5,3.1-2.9,6.3-4,9.6L244.7,92.4z"/>
<path class="st0" d="M365.9,154.7c24.6-14,39.9-40.2,39.9-68.5c0-37.8-27-70.3-64.3-77.3c-3.9-0.7-19.8,2.2-20.5,6.1
	s0.2,4.7,4.1,5.4c31.1-2.8,66.2,34.9,66.2,65.7c0,23.1-12.5,44.5-32.6,55.9c-9.9,5.6-14.6,17.2-11.3,28.2c0,0,42.9,143.3,42.9,143.3
	c1.1,3.8,5.3,6,9,4.9c3.8-1.1,6-5.2,4.9-9l-42.9-143.3C360.1,161.7,361.9,157,365.9,154.7z"/>
</svg>
