<?xml version="1.0" encoding="utf-8"?>
<!-- Generator: Adobe Illustrator 23.1.1, SVG Export Plug-In . SVG Version: 6.00 Build 0)  -->
<svg version="1.1" id="Capa_1" xmlns="http://www.w3.org/2000/svg" xmlns:xlink="http://www.w3.org/1999/xlink" x="0px" y="0px"
	 viewBox="0 0 510 510" style="enable-background:new 0 0 510 510;" xml:space="preserve">
<style type="text/css">
	.st0{fill:none;stroke:#211915;stroke-width:33;stroke-miterlimit:10;}
	.st1{fill:#211915;}
</style>
<path class="st0" d="M451.7,479H58.3C43.2,479,31,466.8,31,451.7V58.3C31,43.2,43.2,31,58.3,31h393.5c15.1,0,27.3,12.2,27.3,27.3
	v393.5C479,466.8,466.8,479,451.7,479z"/>
<rect x="31" y="45.1" class="st1" width="448" height="77.8"/>
<g>
	<g>
		<path d="M163.6,325.2c3.1,3.1,8,3.1,11,0l80.4-80.3l80.3,80.3c3.1,3.1,8,3.1,11,0c3.1-3.1,3.1-8,0-11l-85.9-85.9
			c-1.5-1.5-3.5-2.3-5.5-2.3s-4,0.8-5.5,2.3l-85.9,85.9C160.6,317.2,160.6,322.2,163.6,325.2z"/>
	</g>
</g>
</svg>
