<?xml version="1.0" encoding="utf-8"?>
<!-- Generator: Adobe Illustrator 23.1.1, SVG Export Plug-In . SVG Version: 6.00 Build 0)  -->
<svg version="1.1" id="Capa_1" xmlns="http://www.w3.org/2000/svg" xmlns:xlink="http://www.w3.org/1999/xlink" x="0px" y="0px"
	 viewBox="0 0 512 512" style="enable-background:new 0 0 512 512;" xml:space="preserve">
<style type="text/css">
	.st0{fill:none;stroke:#000000;stroke-width:21;stroke-miterlimit:10;}
</style>
<path d="M120.6,412.4h-15.6c-1.8,0-3.2-1.4-3.2-3.2V102.8c0-1.8,1.4-3.2,3.2-3.2h15.6c1.8,0,3.2,1.4,3.2,3.2v306.3
	C123.8,410.9,122.3,412.4,120.6,412.4z"/>
<path d="M407.1,412.4h-15.6c-1.8,0-3.2-1.4-3.2-3.2V102.8c0-1.8,1.4-3.2,3.2-3.2h15.6c1.8,0,3.2,1.4,3.2,3.2v306.3
	C410.2,410.9,408.8,412.4,407.1,412.4z"/>
<g>
	<g>
		<line class="st0" x1="146.5" y1="256" x2="365.5" y2="256"/>
		<g>
			<polygon points="216.1,341.9 230.4,326.5 154.6,256 230.4,185.5 216.1,170.1 123.8,256 			"/>
		</g>
		<g>
			<polygon points="295.9,341.9 281.6,326.5 357.4,256 281.6,185.5 295.9,170.1 388.2,256 			"/>
		</g>
	</g>
</g>
</svg>
