<?xml version="1.0" encoding="utf-8"?>
<!-- Generator: Adobe Illustrator 23.1.1, SVG Export Plug-In . SVG Version: 6.00 Build 0)  -->
<svg version="1.1" id="Capa_1" xmlns="http://www.w3.org/2000/svg" xmlns:xlink="http://www.w3.org/1999/xlink" x="0px" y="0px"
	 viewBox="0 0 512 512" style="enable-background:new 0 0 512 512;" xml:space="preserve">
<style type="text/css">
	.st0{fill:none;stroke:#000000;stroke-width:21;stroke-miterlimit:10;}
</style>
<path d="M98.6,120.1v-15.6c0-1.8,1.4-3.2,3.2-3.2h306.3c1.8,0,3.2,1.4,3.2,3.2v15.6c0,1.8-1.4,3.2-3.2,3.2H101.8
	C100.1,123.3,98.6,121.8,98.6,120.1z"/>
<path d="M98.6,406.6v-15.6c0-1.8,1.4-3.2,3.2-3.2h306.3c1.8,0,3.2,1.4,3.2,3.2v15.6c0,1.8-1.4,3.2-3.2,3.2H101.8
	C100.1,409.7,98.6,408.3,98.6,406.6z"/>
<g>
	<g>
		<line class="st0" x1="255" y1="146" x2="255" y2="365"/>
		<g>
			<polygon points="169.1,215.6 184.5,229.9 255,154.1 325.5,229.9 340.9,215.6 255,123.3 			"/>
		</g>
		<g>
			<polygon points="169.1,295.4 184.5,281.1 255,356.9 325.5,281.1 340.9,295.4 255,387.7 			"/>
		</g>
	</g>
</g>
</svg>
